<mxfile host="app.diagrams.net" agent="Mozilla/5.0 (Windows NT 10.0; Win64; x64) AppleWebKit/537.36 (KHTML, like Gecko) Chrome/138.0.0.0 Safari/537.36 Edg/138.0.0.0" version="28.0.7">
  <diagram name="Page-1" id="i74SUtEJPaXxr554whLq">
    <mxGraphModel dx="1715" dy="955" grid="1" gridSize="10" guides="1" tooltips="1" connect="1" arrows="1" fold="1" page="1" pageScale="1" pageWidth="827" pageHeight="1169" math="0" shadow="0">
      <root>
        <mxCell id="0" />
        <mxCell id="1" parent="0" />
        <mxCell id="lLDedmcQ7TLhQcj5pJ-E-3" style="edgeStyle=orthogonalEdgeStyle;rounded=0;orthogonalLoop=1;jettySize=auto;html=1;entryX=0.5;entryY=0;entryDx=0;entryDy=0;" parent="1" source="lLDedmcQ7TLhQcj5pJ-E-2" target="lLDedmcQ7TLhQcj5pJ-E-1" edge="1">
          <mxGeometry relative="1" as="geometry" />
        </mxCell>
        <mxCell id="lLDedmcQ7TLhQcj5pJ-E-7" style="edgeStyle=orthogonalEdgeStyle;rounded=0;orthogonalLoop=1;jettySize=auto;html=1;" parent="1" source="lLDedmcQ7TLhQcj5pJ-E-4" target="lLDedmcQ7TLhQcj5pJ-E-6" edge="1">
          <mxGeometry relative="1" as="geometry" />
        </mxCell>
        <mxCell id="lLDedmcQ7TLhQcj5pJ-E-18" style="edgeStyle=orthogonalEdgeStyle;rounded=0;orthogonalLoop=1;jettySize=auto;html=1;" parent="1" source="lLDedmcQ7TLhQcj5pJ-E-16" target="dtsL_xxK6jFfi1139Xua-1" edge="1">
          <mxGeometry relative="1" as="geometry">
            <mxPoint x="579" y="780" as="targetPoint" />
          </mxGeometry>
        </mxCell>
        <mxCell id="lLDedmcQ7TLhQcj5pJ-E-22" style="edgeStyle=orthogonalEdgeStyle;rounded=0;orthogonalLoop=1;jettySize=auto;html=1;" parent="1" source="lLDedmcQ7TLhQcj5pJ-E-20" target="lLDedmcQ7TLhQcj5pJ-E-21" edge="1">
          <mxGeometry relative="1" as="geometry" />
        </mxCell>
        <mxCell id="lLDedmcQ7TLhQcj5pJ-E-24" style="edgeStyle=orthogonalEdgeStyle;rounded=0;orthogonalLoop=1;jettySize=auto;html=1;" parent="1" source="lLDedmcQ7TLhQcj5pJ-E-20" target="lLDedmcQ7TLhQcj5pJ-E-19" edge="1">
          <mxGeometry relative="1" as="geometry">
            <mxPoint x="710" y="540" as="targetPoint" />
          </mxGeometry>
        </mxCell>
        <mxCell id="dtsL_xxK6jFfi1139Xua-3" value="Legacy" style="swimlane;startSize=0;" parent="1" vertex="1">
          <mxGeometry x="40" y="900" width="720" height="200" as="geometry" />
        </mxCell>
        <mxCell id="lLDedmcQ7TLhQcj5pJ-E-15" style="edgeStyle=orthogonalEdgeStyle;rounded=0;orthogonalLoop=1;jettySize=auto;html=1;" parent="dtsL_xxK6jFfi1139Xua-3" source="lLDedmcQ7TLhQcj5pJ-E-11" target="lLDedmcQ7TLhQcj5pJ-E-14" edge="1">
          <mxGeometry relative="1" as="geometry" />
        </mxCell>
        <mxCell id="lLDedmcQ7TLhQcj5pJ-E-11" value="Order Service" style="rounded=0;whiteSpace=wrap;html=1;" parent="dtsL_xxK6jFfi1139Xua-3" vertex="1">
          <mxGeometry x="103" y="110" width="120" height="60" as="geometry" />
        </mxCell>
        <mxCell id="lLDedmcQ7TLhQcj5pJ-E-14" value="Order DB SQL" style="shape=cylinder3;whiteSpace=wrap;html=1;boundedLbl=1;backgroundOutline=1;size=15;" parent="dtsL_xxK6jFfi1139Xua-3" vertex="1">
          <mxGeometry x="330" y="100" width="60" height="80" as="geometry" />
        </mxCell>
        <mxCell id="lLDedmcQ7TLhQcj5pJ-E-16" value="Scheduled Sync Jobs" style="rounded=0;whiteSpace=wrap;html=1;" parent="dtsL_xxK6jFfi1139Xua-3" vertex="1">
          <mxGeometry x="479" y="110" width="120" height="60" as="geometry" />
        </mxCell>
        <mxCell id="lLDedmcQ7TLhQcj5pJ-E-17" style="edgeStyle=orthogonalEdgeStyle;rounded=0;orthogonalLoop=1;jettySize=auto;html=1;entryX=1;entryY=0.5;entryDx=0;entryDy=0;entryPerimeter=0;" parent="dtsL_xxK6jFfi1139Xua-3" source="lLDedmcQ7TLhQcj5pJ-E-16" target="lLDedmcQ7TLhQcj5pJ-E-14" edge="1">
          <mxGeometry relative="1" as="geometry" />
        </mxCell>
        <mxCell id="LaQOIQF6EhnFDMQIrNYH-1" value="Order SQS" style="shape=cylinder3;whiteSpace=wrap;html=1;boundedLbl=1;backgroundOutline=1;size=15;rotation=-90;textDirection=vertical-rl;" vertex="1" parent="dtsL_xxK6jFfi1139Xua-3">
          <mxGeometry x="133" y="10" width="60" height="80" as="geometry" />
        </mxCell>
        <mxCell id="LaQOIQF6EhnFDMQIrNYH-5" style="edgeStyle=orthogonalEdgeStyle;rounded=0;orthogonalLoop=1;jettySize=auto;html=1;entryX=0;entryY=0.5;entryDx=0;entryDy=0;entryPerimeter=0;" edge="1" parent="dtsL_xxK6jFfi1139Xua-3" source="lLDedmcQ7TLhQcj5pJ-E-11" target="LaQOIQF6EhnFDMQIrNYH-1">
          <mxGeometry relative="1" as="geometry" />
        </mxCell>
        <mxCell id="dtsL_xxK6jFfi1139Xua-4" value="Order Domain (AWS)" style="swimlane;startSize=0;" parent="1" vertex="1">
          <mxGeometry x="40" y="510" width="720" height="260" as="geometry" />
        </mxCell>
        <mxCell id="dtsL_xxK6jFfi1139Xua-1" value="Order Status RDS" style="shape=cylinder3;whiteSpace=wrap;html=1;boundedLbl=1;backgroundOutline=1;size=15;" parent="dtsL_xxK6jFfi1139Xua-4" vertex="1">
          <mxGeometry x="640" y="160" width="60" height="80" as="geometry" />
        </mxCell>
        <mxCell id="lLDedmcQ7TLhQcj5pJ-E-9" value="Order Placement Processor Lambda" style="rounded=0;whiteSpace=wrap;html=1;" parent="dtsL_xxK6jFfi1139Xua-4" vertex="1">
          <mxGeometry x="103" y="170" width="120" height="60" as="geometry" />
        </mxCell>
        <mxCell id="lLDedmcQ7TLhQcj5pJ-E-8" value="Order Dynamodb" style="shape=cylinder3;whiteSpace=wrap;html=1;boundedLbl=1;backgroundOutline=1;size=15;" parent="dtsL_xxK6jFfi1139Xua-4" vertex="1">
          <mxGeometry x="330" y="160" width="60" height="80" as="geometry" />
        </mxCell>
        <mxCell id="lLDedmcQ7TLhQcj5pJ-E-13" style="edgeStyle=orthogonalEdgeStyle;rounded=0;orthogonalLoop=1;jettySize=auto;html=1;" parent="dtsL_xxK6jFfi1139Xua-4" source="lLDedmcQ7TLhQcj5pJ-E-9" target="lLDedmcQ7TLhQcj5pJ-E-8" edge="1">
          <mxGeometry relative="1" as="geometry" />
        </mxCell>
        <mxCell id="dtsL_xxK6jFfi1139Xua-8" style="edgeStyle=orthogonalEdgeStyle;rounded=0;orthogonalLoop=1;jettySize=auto;html=1;" parent="dtsL_xxK6jFfi1139Xua-4" source="lLDedmcQ7TLhQcj5pJ-E-25" target="lLDedmcQ7TLhQcj5pJ-E-19" edge="1">
          <mxGeometry relative="1" as="geometry" />
        </mxCell>
        <mxCell id="lLDedmcQ7TLhQcj5pJ-E-25" value="Order Change Processor Lambda" style="rounded=0;whiteSpace=wrap;html=1;" parent="dtsL_xxK6jFfi1139Xua-4" vertex="1">
          <mxGeometry x="479" y="170" width="120" height="60" as="geometry" />
        </mxCell>
        <mxCell id="lLDedmcQ7TLhQcj5pJ-E-26" style="edgeStyle=orthogonalEdgeStyle;rounded=0;orthogonalLoop=1;jettySize=auto;html=1;" parent="dtsL_xxK6jFfi1139Xua-4" source="lLDedmcQ7TLhQcj5pJ-E-25" target="lLDedmcQ7TLhQcj5pJ-E-8" edge="1">
          <mxGeometry relative="1" as="geometry" />
        </mxCell>
        <mxCell id="lLDedmcQ7TLhQcj5pJ-E-19" value="Order Status Kafka" style="shape=cylinder3;whiteSpace=wrap;html=1;boundedLbl=1;backgroundOutline=1;size=15;rotation=-90;textDirection=vertical-rl;" parent="dtsL_xxK6jFfi1139Xua-4" vertex="1">
          <mxGeometry x="509" y="30" width="60" height="80" as="geometry" />
        </mxCell>
        <mxCell id="lLDedmcQ7TLhQcj5pJ-E-6" value="Order SQS" style="shape=cylinder3;whiteSpace=wrap;html=1;boundedLbl=1;backgroundOutline=1;size=15;rotation=-90;textDirection=vertical-rl;" parent="dtsL_xxK6jFfi1139Xua-4" vertex="1">
          <mxGeometry x="133" y="30" width="60" height="80" as="geometry" />
        </mxCell>
        <mxCell id="lLDedmcQ7TLhQcj5pJ-E-10" style="edgeStyle=orthogonalEdgeStyle;rounded=0;orthogonalLoop=1;jettySize=auto;html=1;" parent="dtsL_xxK6jFfi1139Xua-4" source="lLDedmcQ7TLhQcj5pJ-E-6" target="lLDedmcQ7TLhQcj5pJ-E-9" edge="1">
          <mxGeometry relative="1" as="geometry" />
        </mxCell>
        <mxCell id="LaQOIQF6EhnFDMQIrNYH-6" style="edgeStyle=orthogonalEdgeStyle;rounded=0;orthogonalLoop=1;jettySize=auto;html=1;entryX=0;entryY=0.5;entryDx=0;entryDy=0;entryPerimeter=0;" edge="1" parent="dtsL_xxK6jFfi1139Xua-4" source="lLDedmcQ7TLhQcj5pJ-E-25" target="dtsL_xxK6jFfi1139Xua-1">
          <mxGeometry relative="1" as="geometry" />
        </mxCell>
        <mxCell id="dtsL_xxK6jFfi1139Xua-9" value="Channel Service (AWS)" style="swimlane;startSize=0;" parent="1" vertex="1">
          <mxGeometry x="40" y="260" width="720" height="220" as="geometry" />
        </mxCell>
        <mxCell id="lLDedmcQ7TLhQcj5pJ-E-20" value="Order Updater Service (ECS)" style="rounded=0;whiteSpace=wrap;html=1;" parent="dtsL_xxK6jFfi1139Xua-9" vertex="1">
          <mxGeometry x="479" y="80" width="120" height="60" as="geometry" />
        </mxCell>
        <mxCell id="lLDedmcQ7TLhQcj5pJ-E-4" value="Order API (ECS)" style="rounded=0;whiteSpace=wrap;html=1;" parent="dtsL_xxK6jFfi1139Xua-9" vertex="1">
          <mxGeometry x="103" y="130" width="120" height="60" as="geometry" />
        </mxCell>
        <mxCell id="lLDedmcQ7TLhQcj5pJ-E-1" value="API Gateway" style="rounded=0;whiteSpace=wrap;html=1;" parent="dtsL_xxK6jFfi1139Xua-9" vertex="1">
          <mxGeometry x="103" y="30" width="120" height="60" as="geometry" />
        </mxCell>
        <mxCell id="lLDedmcQ7TLhQcj5pJ-E-5" style="edgeStyle=orthogonalEdgeStyle;rounded=0;orthogonalLoop=1;jettySize=auto;html=1;" parent="dtsL_xxK6jFfi1139Xua-9" source="lLDedmcQ7TLhQcj5pJ-E-1" target="lLDedmcQ7TLhQcj5pJ-E-4" edge="1">
          <mxGeometry relative="1" as="geometry" />
        </mxCell>
        <mxCell id="dtsL_xxK6jFfi1139Xua-10" value="Marketplace (3rd Party)" style="swimlane;startSize=0;" parent="1" vertex="1">
          <mxGeometry x="40" y="60" width="720" height="160" as="geometry" />
        </mxCell>
        <mxCell id="lLDedmcQ7TLhQcj5pJ-E-21" value="Marketplace API" style="rounded=0;whiteSpace=wrap;html=1;" parent="dtsL_xxK6jFfi1139Xua-10" vertex="1">
          <mxGeometry x="479" y="50" width="120" height="60" as="geometry" />
        </mxCell>
        <mxCell id="lLDedmcQ7TLhQcj5pJ-E-2" value="&lt;span style=&quot;text-wrap-mode: wrap;&quot;&gt;Marketplace&lt;/span&gt;" style="shape=umlActor;verticalLabelPosition=bottom;verticalAlign=top;html=1;outlineConnect=0;" parent="dtsL_xxK6jFfi1139Xua-10" vertex="1">
          <mxGeometry x="148" y="30" width="30" height="60" as="geometry" />
        </mxCell>
        <mxCell id="v3nFX1cAJuuVKFPmxPGM-2" style="edgeStyle=orthogonalEdgeStyle;rounded=0;orthogonalLoop=1;jettySize=auto;html=1;entryX=1;entryY=0.5;entryDx=0;entryDy=0;entryPerimeter=0;" parent="1" source="lLDedmcQ7TLhQcj5pJ-E-29" target="LaQOIQF6EhnFDMQIrNYH-1" edge="1">
          <mxGeometry relative="1" as="geometry" />
        </mxCell>
        <mxCell id="lLDedmcQ7TLhQcj5pJ-E-29" value="EC2" style="rounded=0;whiteSpace=wrap;html=1;" parent="1" vertex="1">
          <mxGeometry x="143" y="810" width="120" height="60" as="geometry" />
        </mxCell>
        <mxCell id="v3nFX1cAJuuVKFPmxPGM-1" style="edgeStyle=orthogonalEdgeStyle;rounded=0;orthogonalLoop=1;jettySize=auto;html=1;" parent="1" source="lLDedmcQ7TLhQcj5pJ-E-9" target="lLDedmcQ7TLhQcj5pJ-E-29" edge="1">
          <mxGeometry relative="1" as="geometry" />
        </mxCell>
      </root>
    </mxGraphModel>
  </diagram>
</mxfile>
